name Run_500 02_newCOP3_v24.mot
datacolumns 19
datarows 61
range 2.85625 2.91875
DataType=double
version=3
OpenSimVersion=4.3-2021-08-27-4bc7ad9
endheader
time	R_ground_force_vx	R_ground_force_vy	R_ground_force_vz	R_ground_force_px	R_ground_force_py	R_ground_force_pz	L_ground_force_vx	L_ground_force_vy	L_ground_force_vz	L_ground_force_px	L_ground_force_py	L_ground_force_pz	R_ground_torque_x	R_ground_torque_y	R_ground_torque_z	L_ground_torque_x	L_ground_torque_y	L_ground_torque_z
2.85625	-237.496262	1196.907715	70.540085	1.095355	0	-0.65893	0	0	0	0	0	0	-0	2.266935	-0	0	0	0
2.857292	-242.596451	1204.728882	71.852631	1.092736	0	-0.658886	0	0	0	0	0	0	-0	1.997664	-0	0	0	0
2.858333	-247.195038	1213.519165	72.966919	1.089943	0	-0.658842	0	0	0	0	0	0	-0	1.740411	-0	0	0	0
2.859375	-251.222	1223.328979	73.88687899999999	1.086969	0	-0.658801	0	0	0	0	0	0	-0	1.49595	-0	0	0	0
2.860417	-254.616013	1234.186768	74.618607	1.083813	0	-0.658763	0	0	0	0	0	0	-0	1.264988	-0	0	0	0
2.861458	-257.326508	1246.100342	75.170197	1.080476	0	-0.65873	0	0	0	0	0	0	-0	1.048158	-0	0	0	0
2.8625	-259.31546	1259.059692	75.551529	1.076962	0	-0.658701	0	0	0	0	0	0	-0	0.846021	-0	0	0	0
2.863542	-260.55835	1273.037964	75.773994	1.07328	0	-0.658678	0	0	0	0	0	0	-0	0.659069	-0	0	0	0
2.864583	-261.045074	1287.994507	75.85024300000001	1.069438	0	-0.658659	0	0	0	0	0	0	-0	0.487717	-0	0	0	0
2.865625	-260.779602	1303.875122	75.793915	1.065451	0	-0.658643	0	0	0	0	0	0	-0	0.332312	-0	0	0	0
2.866667	-259.779724	1320.614868	75.61930099999999	1.061334	0	-0.658631	0	0	0	0	0	0	-0	0.193128	-0	0	0	0
2.867708	-258.075867	1338.138672	75.341095	1.057105	0	-0.658621	0	0	0	0	0	0	-0	0.070369	-0	0	0	0
2.86875	-255.709702	1356.363037	74.974068	1.052783	0	-0.6586109999999999	0	0	0	0	0	0	0	-0.035827	0	0	0	0
2.869792	-252.732224	1375.197021	74.53280599999999	1.048388	0	-0.6586	0	0	0	0	0	0	0	-0.12539	0	0	0	0
2.870833	-249.201843	1394.543335	74.031448	1.043941	0	-0.658587	0	0	0	0	0	0	0	-0.198314	0	0	0	0
2.871875	-245.182053	1414.299927	73.48342100000001	1.039462	0	-0.658569	0	0	0	0	0	0	0	-0.254655	0	0	0	0
2.872917	-240.73941	1434.360474	72.90125999999999	1.034971	0	-0.658546	0	0	0	0	0	0	0	-0.294526	0	0	0	0
2.873958	-235.941238	1454.616455	72.29637099999999	1.030486	0	-0.658515	0	0	0	0	0	0	0	-0.318099	0	0	0	0
2.875	-230.853806	1474.958252	71.67892500000001	1.026024	0	-0.658475	0	0	0	0	0	0	0	-0.325599	0	0	0	0
2.876042	-225.540588	1495.276489	71.057709	1.021599	0	-0.658425	0	0	0	0	0	0	0	-0.317303	0	0	0	0
2.877083	-220.060791	1515.463867	70.440056	1.017224	0	-0.658363	0	0	0	0	0	0	0	-0.293534	0	0	0	0
2.878125	-214.468292	1535.41687	69.83178700000001	1.012907	0	-0.658289	0	0	0	0	0	0	0	-0.254664	0	0	0	0
2.879167	-208.810822	1555.036987	69.237206	1.008657	0	-0.658202	0	0	0	0	0	0	0	-0.201103	0	0	0	0
2.880208	-203.129501	1574.232788	68.659126	1.004477	0	-0.6581	0	0	0	0	0	0	0	-0.133306	0	0	0	0
2.88125	-197.458633	1592.920776	68.098938	1.000369	0	-0.657985	0	0	0	0	0	0	0	-0.051763	0	0	0	0
2.882292	-191.825775	1611.027222	67.556648	0.996333	0	-0.657855	0	0	0	0	0	0	-0	0.043003	-0	0	0	0
2.883333	-186.251968	1628.488159	67.03106699999999	0.992367	0	-0.657712	0	0	0	0	0	0	-0	0.150434	-0	0	0	0
2.884375	-180.752167	1645.250977	66.51989	0.988465	0	-0.657556	0	0	0	0	0	0	-0	0.269942	-0	0	0	0
2.885417	-175.335785	1661.273926	66.019859	0.984623	0	-0.657388	0	0	0	0	0	0	-0	0.400915	-0	0	0	0
2.886458	-170.007263	1676.526367	65.52697000000001	0.980834	0	-0.657209	0	0	0	0	0	0	-0	0.5427110000000001	-0	0	0	0
2.8875	-164.766647	1690.988159	65.03660600000001	0.97709	0	-0.65702	0	0	0	0	0	0	-0	0.694669	-0	0	0	0
2.888542	-159.610306	1704.649048	64.543747	0.973384	0	-0.656821	0	0	0	0	0	0	-0	0.8561029999999999	-0	0	0	0
2.889583	-154.531448	1717.50769	64.043167	0.969706	0	-0.656616	0	0	0	0	0	0	-0	1.026312	-0	0	0	0
2.890625	-149.520706	1729.570435	63.529587	0.966051	0	-0.656404	0	0	0	0	0	0	-0	1.204574	-0	0	0	0
2.891667	-144.566696	1740.850098	62.997856	0.962409	0	-0.656188	0	0	0	0	0	0	-0	1.390155	-0	0	0	0
2.892708	-139.65654	1751.364502	62.44313	0.958773	0	-0.655969	0	0	0	0	0	0	-0	1.582305	-0	0	0	0
2.89375	-134.776276	1761.13562	61.861	0.955139	0	-0.655747	0	0	0	0	0	0	-0	1.780264	-0	0	0	0
2.894792	-129.911301	1770.1875	61.24762	0.9515	0	-0.655524	0	0	0	0	0	0	-0	1.983262	-0	0	0	0
2.895833	-125.046875	1778.546143	60.599819	0.947851	0	-0.655301	0	0	0	0	0	0	-0	2.190521	-0	0	0	0
2.896875	-120.168472	1786.237305	59.915192	0.9441889999999999	0	-0.655079	0	0	0	0	0	0	-0	2.401255	-0	0	0	0
2.897917	-115.262192	1793.286865	59.19215	0.940511	0	-0.6548580000000001	0	0	0	0	0	0	-0	2.614679	-0	0	0	0
2.898958	-110.315224	1799.719116	58.42997	0.936816	0	-0.654639	0	0	0	0	0	0	-0	2.829999	-0	0	0	0
2.9	-105.316162	1805.556641	57.628803	0.933101	0	-0.6544219999999999	0	0	0	0	0	0	-0	3.046426	-0	0	0	0
2.901042	-100.25547	1810.820313	56.78968	0.929368	0	-0.654208	0	0	0	0	0	0	-0	3.263169	-0	0	0	0
2.902083	-95.125771	1815.52832	55.914471	0.925617	0	-0.653996	0	0	0	0	0	0	-0	3.479444	-0	0	0	0
2.903125	-89.92216500000001	1819.696655	55.005848	0.921847	0	-0.653788	0	0	0	0	0	0	-0	3.694468	-0	0	0	0
2.904167	-84.642494	1823.338989	54.067223	0.918063	0	-0.653581	0	0	0	0	0	0	-0	3.907471	-0	0	0	0
2.905208	-79.28746	1826.466553	53.102661	0.914264	0	-0.653377	0	0	0	0	0	0	-0	4.117688	-0	0	0	0
2.90625	-73.860741	1829.088867	52.116802	0.910455	0	-0.653175	0	0	0	0	0	0	-0	4.324368	-0	0	0	0
2.907292	-68.368889	1831.213745	51.11475	0.906637	0	-0.652975	0	0	0	0	0	0	-0	4.526776	-0	0	0	0
2.908333	-62.82119	1832.847534	50.101971	0.902813	0	-0.652776	0	0	0	0	0	0	-0	4.724191	-0	0	0	0
2.909375	-57.229389	1833.995239	49.084183	0.898986	0	-0.652578	0	0	0	0	0	0	-0	4.915909	-0	0	0	0
2.910417	-51.607273	1834.661377	48.067245	0.89516	0	-0.65238	0	0	0	0	0	0	-0	5.10125	-0	0	0	0
2.911458	-45.970173	1834.850098	47.057049	0.891337	0	-0.652182	0	0	0	0	0	0	-0	5.279554	-0	0	0	0
2.9125	-40.3344	1834.565063	46.059414	0.88752	0	-0.651985	0	0	0	0	0	0	-0	5.450189	-0	0	0	0
2.913542	-34.716564	1833.810303	45.079987	0.883711	0	-0.651788	0	0	0	0	0	0	-0	5.612546	-0	0	0	0
2.914583	-29.132942	1832.589722	44.124161	0.879912	0	-0.65159	0	0	0	0	0	0	-0	5.766048	-0	0	0	0
2.915625	-23.598783	1830.907715	43.196987	0.876126	0	-0.651392	0	0	0	0	0	0	-0	5.910147	-0	0	0	0
2.916667	-18.127697	1828.769043	42.303131	0.872353	0	-0.651195	0	0	0	0	0	0	-0	6.044329	-0	0	0	0
2.917708	-12.731073	1826.178467	41.446789	0.868595	0	-0.650998	0	0	0	0	0	0	-0	6.168114	-0	0	0	0
2.91875	-7.417636	1823.140991	40.63168	0.864852	0	-0.650802	0	0	0	0	0	0	-0	6.281058	-0	0	0	0
